<svg xmlns="http://www.w3.org/2000/svg" width="128" height="128" xml:space="preserve"><path fill="#FFD870" d="M92.177 125.771h-4.011V91.68c0-.529.21-1.038.584-1.414 6.558-6.598 10.171-15.366 10.171-24.689 0-19.272-15.61-34.952-34.796-34.952-19.189 0-34.8 15.68-34.8 34.952 0 .534.02 1.062.041 1.593.015.377-.077.751-.265 1.078L18.93 85.938h5.083c1.107 0 2.005.897 2.005 2.005v14.592c0 4.391 3.551 7.962 7.917 7.962h15.717c1.107 0 2.006.897 2.006 2.005v13.27h-4.011v-11.264H33.935c-6.577 0-11.928-5.371-11.928-11.973V89.948h-6.544a2.006 2.006 0 0 1-1.738-3.005l11.611-20.195a35.09 35.09 0 0 1-.022-1.172c0-21.484 17.411-38.964 38.812-38.964 21.398 0 38.807 17.479 38.807 38.964 0 10.11-3.813 19.637-10.755 26.918v33.277z"/><path fill="#FFD870" d="M63.864 68.437c-.345 0-.689-.09-.998-.267l-14.624-8.391a2.003 2.003 0 0 1-.007-3.474l14.718-8.536a2.009 2.009 0 0 1 2.004-.005l14.629 8.395a2.009 2.009 0 0 1 .008 3.475L64.87 68.166a2.01 2.01 0 0 1-1.006.271zM53.254 58.03l10.605 6.086 10.712-6.209-10.608-6.088-10.709 6.211z"/><path fill="#FFD870" d="M64.035 85.498a2.003 2.003 0 0 1-2.005-1.985l-.171-17.063a2.007 2.007 0 0 1 1-1.756l14.723-8.532a2.005 2.005 0 0 1 3.011 1.715l.171 17.059a2.006 2.006 0 0 1-1 1.755l-14.722 8.537c-.312.18-.659.27-1.007.27zm1.846-17.919.126 12.453 10.732-6.225-.124-12.449-10.734 6.221z"/><path fill="#FFD870" d="M64.055 85.498h-.02c-.345 0-.689-.089-.998-.266L48.41 76.838a2.005 2.005 0 0 1-1.007-1.72l-.169-17.058a2.006 2.006 0 0 1 3.004-1.76l14.623 8.392a2.005 2.005 0 0 1 1.008 1.719l.169 16.778a2.003 2.003 0 0 1-1.983 2.309zM51.403 73.93l10.592 6.08-.125-12.411-10.59-6.076.123 12.407z"/><g><path fill="#FFD870" d="M62.293 95.874a29.446 29.446 0 0 1-4.232-.556l.81-3.929c1.201.248 2.43.408 3.653.479l-.231 4.006zm4.264-.061-.345-3.996a25.044 25.044 0 0 0 3.635-.585l.928 3.901a29.298 29.298 0 0 1-4.218.68zm-12.608-1.666a29.182 29.182 0 0 1-3.894-1.761l1.916-3.523a25.26 25.26 0 0 0 3.357 1.518l-1.379 3.766zm20.897-.304-1.488-3.725a25.308 25.308 0 0 0 3.307-1.613l2.018 3.467a29.358 29.358 0 0 1-3.837 1.871zm-28.383-3.766a29.697 29.697 0 0 1-3.218-2.802l2.845-2.828a25.542 25.542 0 0 0 2.781 2.422l-2.408 3.208zm35.742-.515-2.501-3.136a25.796 25.796 0 0 0 2.711-2.5l2.926 2.744a29.825 29.825 0 0 1-3.136 2.892zM40.464 84.04a29.592 29.592 0 0 1-2.284-3.602l3.534-1.897a25.267 25.267 0 0 0 1.974 3.111l-3.224 2.388zm47.565-.687-3.291-2.293a25.806 25.806 0 0 0 1.886-3.17l3.586 1.794a29.593 29.593 0 0 1-2.181 3.669zM36.44 76.54a29.482 29.482 0 0 1-1.156-4.111l3.931-.801c.245 1.201.58 2.395.997 3.547L36.44 76.54zm55.397-.807-3.809-1.253c.382-1.163.683-2.366.893-3.574l3.952.688a29.2 29.2 0 0 1-1.036 4.139zm-57.1-7.534a30.394 30.394 0 0 1 .06-4.261l3.997.343a26.036 26.036 0 0 0-.053 3.691l-4.004.227zm58.562-.845-4.01-.12a25.516 25.516 0 0 0-.158-3.684l3.985-.456a30.128 30.128 0 0 1 .183 4.26zm-53.925-6.712-3.905-.917a29.406 29.406 0 0 1 1.277-4.077l3.73 1.475a25.268 25.268 0 0 0-1.102 3.519zm49.074-.713a25.3 25.3 0 0 0-1.204-3.482l3.687-1.583a29.445 29.445 0 0 1 1.394 4.035l-3.877 1.03zm-46.37-6.127-3.477-2.001a29.591 29.591 0 0 1 2.391-3.536l3.151 2.481a25.657 25.657 0 0 0-2.065 3.056zm43.472-.626a25.592 25.592 0 0 0-2.151-2.993l3.079-2.57a29.458 29.458 0 0 1 2.489 3.465l-3.417 2.098zm-38.922-5.155-2.762-2.909a29.377 29.377 0 0 1 3.299-2.705l2.313 3.276a25.95 25.95 0 0 0-2.85 2.338zm34.21-.491a25.632 25.632 0 0 0-2.916-2.256l2.217-3.343a29.687 29.687 0 0 1 3.377 2.61l-2.678 2.989zm-28.203-3.744-1.812-3.579a29.135 29.135 0 0 1 3.943-1.644l1.267 3.806a25.07 25.07 0 0 0-3.398 1.417zm22.076-.319a25.165 25.165 0 0 0-3.44-1.318l1.155-3.841c1.361.409 2.704.924 3.99 1.528l-1.705 3.631zm-15.109-2-.694-3.95a29.288 29.288 0 0 1 4.247-.431l.114 4.009c-1.229.035-2.463.16-3.667.372zm8.073-.116A25.43 25.43 0 0 0 64 41.084v-4.011c1.424 0 2.854.104 4.255.308l-.58 3.97z"/></g><g><path fill="#FFD870" d="m73.008 16.181-8.239-8.269-8.24 8.269-2.841-2.831L64.769 2.229 75.85 13.35z"/><path fill="#FFD870" d="M62.765 6.991h4.011v16.408h-4.011zM23.29 36.23l-4.012-.001.007-15.719 15.659-.007.002 4.012-11.652.005z"/><path fill="#FFD870" d="m24.062 22.457 11.555 11.598-2.841 2.83L21.22 25.289zM11.057 76.84 0 65.724l11.057-11.115 2.843 2.829-8.243 8.286 8.243 8.288z"/><path fill="#FFD870" d="M4.738 63.717h16.341v4.012H4.738z"/><g><path fill="#FFD870" d="m116.936 78.388-2.842-2.83 8.246-8.285-8.247-8.286 2.844-2.829L128 67.273z"/><path fill="#FFD870" d="M106.916 65.27h16.344v4.011h-16.344z"/></g><g><path fill="#FFD870" d="m105.797 37.323-.004-11.707-11.652-.005.002-4.011 15.66.007.006 15.715z"/><path fill="#FFD870" d="m105.03 23.55 2.843 2.83-11.554 11.602-2.842-2.83z"/></g></g></svg>