<svg xmlns="http://www.w3.org/2000/svg" xmlns:xlink="http://www.w3.org/1999/xlink" version="1.1" width="1000" height="1000" viewBox="0 0 1000 1000" xml:space="preserve">
<desc>Created with Fabric.js 3.5.0</desc>
<defs>
</defs>
<rect x="0" y="0" width="10%" height="10%" fill="none"/>
<g transform="matrix(0.9259 0 0 0.9259 499.986 499.986)" id="469047">
<g style="" vector-effect="non-scaling-stroke">
		<g transform="matrix(1 0 0 1 -490 -490)">
<rect style="stroke: none; stroke-width: 1; stroke-dasharray: none; stroke-linecap: butt; stroke-dashoffset: 0; stroke-linejoin: miter; stroke-miterlimit: 4; is-custom-font: none; font-file-url: none; fill: none; fill-opacity: 0; fill-rule: nonzero; opacity: 1;" x="-50" y="-50" rx="0" ry="0" width="50" height="50"/>
</g>
		<g transform="matrix(18.005 0 0 18.005 11.4989 11.4985)" id="262570">
<path style="stroke: rgb(255,216,112); stroke-width: 1; stroke-dasharray: none; stroke-linecap: butt; stroke-dashoffset: 0; stroke-linejoin: miter; stroke-miterlimit: 4; is-custom-font: none; font-file-url: none; fill: none; fill-rule: nonzero; opacity: 1;" vector-effect="non-scaling-stroke" transform=" translate(-197.55, -270.7815)" d="M 176.258 251 l 0.657 -0.652 l 0.656 0.655 l 1.361 1.359 l 0.66 0.657 l -0.659 0.66 l -4.332 4.333 l 2.123 2.123 l 1.945 -1.945 l 0.659 -0.659 l 0.656 0.659 l 1.362 1.357 l 0.659 0.658 l -0.658 0.659 l -1.949 1.947 l 2.126 2.126 l 1.944 -1.948 l 0.657 -0.657 l 0.659 0.657 l 1.361 1.36 l 0.66 0.656 l -0.66 0.659 l -1.945 1.947 l 1.635 1.634 l 10.177 -10.177 L 180.835 243.89 a 1.3 1.3 0 0 0 -1.824 0 l -8.352 8.352 a 1.3 1.3 0 0 0 0 1.825 l 1.266 1.264 l 4.167 -4.168 Z m 37.61 13.426 l -9.961 -9.96 l -6.794 6.794 l -10.621 10.62 l -10.942 10.94 l 0.482 0.329 l 1.8 1.228 l 0.188 0.128 l 0.108 0.2 l 0.1 0.178 l 1.82 3.384 l 3.562 1.917 l 0.2 0.108 l 0.128 0.188 l 1.166 1.713 l 0.4 0.591 l 10.946 -10.945 l 12.152 -12.152 Z m 10.574 23.072 l -15.176 -15.178 L 199.087 282.5 l 1.635 1.634 l 1.946 -1.946 l 0.658 -0.661 l 0.659 0.662 l 1.359 1.362 l 0.657 0.657 l -0.657 0.658 l -1.946 1.945 l 2.124 2.124 l 1.947 -1.947 l 0.659 -0.657 l 0.658 0.657 l 1.358 1.36 l 0.659 0.658 l -0.659 0.658 l -1.947 1.946 l 2.124 2.124 l 4.167 -4.169 l 0.169 -0.167 l 0.658 -0.653 l 0.656 0.656 l 1.359 1.359 l 0.657 0.66 l -0.657 0.658 L 213 296.408 l 1.265 1.264 a 1.3 1.3 0 0 0 1.826 0 l 4.176 -4.175 l 4.175 -4.179 a 1.3 1.3 0 0 0 0 -1.823 Z m -45.867 2.62 l -0.246 -0.132 l -0.132 -0.245 l -0.37 -0.687 l -1.584 -2.947 l -0.977 -0.664 l -0.672 -0.459 l -0.849 5.269 l 4.338 4.335 l 5.26 -0.846 l -1.137 -1.669 Z M 222.05 256.24 a 1.3 1.3 0 0 0 0 -1.823 l -8.138 -8.136 a 1.3 1.3 0 0 0 -1.823 0 l -4.564 4.565 l 9.96 9.961 Z m -6.211 6.212 l -9.961 -9.96 l -0.325 0.325 l 9.961 9.96 Z M 173.122 294.12 l -0.207 1.3 l 2.33 -0.373 l -1.955 -1.957 Z" stroke-linecap="round"/>
</g>
</g>
</g>
</svg>